<svg width="25" height="24" viewBox="0 0 25 24" fill="none" xmlns="http://www.w3.org/2000/svg">
<path d="M9.19314 14.4543C9.57928 14.0681 10.0632 13.8394 10.5653 13.7681M10.5653 13.7681C11.2946 13.6646 12.0621 13.8933 12.623 14.4543C13.5702 15.4014 13.5702 16.937 12.623 17.8841C11.8704 18.6368 10.7461 18.7913 9.84082 18.3478C9.44406 18.1534 8.93987 18.1374 8.62745 18.4498L5.07728 22M10.5653 13.7681C10.5653 13.768 10.5653 13.7682 10.5653 13.7681ZM10.5653 13.7681C10.6688 13.0388 10.4401 12.2713 9.87911 11.7104C8.93198 10.7632 7.39636 10.7632 6.44923 11.7104C5.69657 12.463 5.54203 13.5873 5.98559 14.4925C6.17999 14.8893 6.19596 15.3935 5.88354 15.7059L2.33337 19.2561" stroke="#093C6E" stroke-width="1.5" stroke-linecap="round" stroke-linejoin="round"/>
<path d="M15.4736 9.54574C15.0875 9.93189 14.6035 10.1606 14.1015 10.2319M14.1015 10.2319C13.3722 10.3354 12.6047 10.1067 12.0438 9.54574C11.0966 8.59861 11.0966 7.063 12.0438 6.11586C12.7964 5.3632 13.9207 5.20866 14.8259 5.65222C15.2227 5.84662 15.7269 5.86259 16.0393 5.55017L19.5895 2M14.1015 10.2319C13.998 10.9612 14.2267 11.7287 14.7877 12.2896C15.7348 13.2368 17.2704 13.2368 18.2175 12.2896C18.9702 11.537 19.1247 10.4127 18.6812 9.50745C18.4868 9.11069 18.4708 8.6065 18.7832 8.29408L22.3334 4.74391" stroke="#093C6E" stroke-width="1.5" stroke-linecap="round" stroke-linejoin="round"/>
<path d="M16.3334 18V20M18.3334 16H20.3334" stroke="#093C6E" stroke-width="1.5" stroke-linecap="round" stroke-linejoin="round"/>
<path d="M8.33337 6V4M6.33337 8H4.33337" stroke="#093C6E" stroke-width="1.5" stroke-linecap="round" stroke-linejoin="round"/>
</svg>
