<svg width="25" height="24" viewBox="0 0 25 24" fill="none" xmlns="http://www.w3.org/2000/svg">
<path d="M15.8116 5.20762C15.1698 4.46785 14.2229 4 13.1667 4C11.67 4 10.3926 4.93951 9.8923 6.26097C9.5181 6.09327 9.10327 6 8.66666 6C7.00981 6 5.66666 7.34315 5.66666 9C5.66666 9.01673 5.6668 9.03343 5.66707 9.05009M15.8116 5.20762C16.2392 5.07274 16.6945 5 17.1667 5C19.652 5 21.6667 7.01472 21.6667 9.5C21.6667 10.1296 21.5374 10.729 21.3039 11.273M15.8116 5.20762C14.4648 5.63239 13.3916 6.67345 12.9228 8C12.8102 8.31841 12.7325 8.65327 12.6942 9M5.66707 9.05009C5.50539 9.01724 5.33804 9 5.16666 9C3.78595 9 2.66666 10.1193 2.66666 11.5C2.66666 12.8807 3.78595 14 5.16666 14H9.71667M5.66707 9.05009C5.67933 9.7988 5.96586 10.4808 6.43055 11M21.3039 11.273C20.9628 11.0985 20.5762 11 20.1667 11C18.9572 11 17.9483 11.8589 17.7167 13M21.3039 11.273C22.1129 11.687 22.6667 12.5288 22.6667 13.5C22.6667 14.8807 21.5474 16 20.1667 16C18.9571 16 18.1198 17.2082 18.5445 18.3408L19.1667 20M9.71667 14C9.9483 15.1411 10.9572 16 12.1667 16C12.4215 16 12.549 16 12.6665 16.014C13.2522 16.0835 13.7774 16.4081 14.1015 16.9009C14.1666 16.9997 14.2236 17.1137 14.3375 17.3416L15.6667 20M9.71667 14C9.68388 13.8384 9.66666 13.6712 9.66666 13.5C9.66666 12.6822 10.0593 11.9561 10.6664 11.5" stroke="#093C6E" stroke-width="1.5" stroke-linecap="round" stroke-linejoin="round"/>
</svg>
