<svg width="24" height="25" viewBox="0 0 24 25" fill="none" xmlns="http://www.w3.org/2000/svg">
<path d="M9.1585 6.34504L8.75584 5.43906C8.49256 4.84669 8.36092 4.55049 8.16405 4.32382C7.91732 4.03975 7.59571 3.83075 7.23592 3.72066C6.94883 3.63281 6.6247 3.63281 5.97645 3.63281C5.02815 3.63281 4.554 3.63281 4.15597 3.8151C3.68711 4.02983 3.26368 4.49609 3.09497 4.98341C2.95175 5.3971 2.99278 5.82224 3.07482 6.67251C3.94815 15.723 8.91006 20.6849 17.9605 21.5582C18.8108 21.6403 19.236 21.6813 19.6496 21.5381C20.137 21.3694 20.6032 20.9459 20.818 20.4771C21.0002 20.079 21.0002 19.6049 21.0002 18.6566C21.0002 18.0083 21.0002 17.6842 20.9124 17.3971C20.8023 17.0373 20.5933 16.7157 20.3092 16.469C20.0826 16.2721 19.7864 16.1405 19.194 15.8772L18.288 15.4745C17.6465 15.1894 17.3257 15.0469 16.9998 15.0159C16.6878 14.9862 16.3733 15.03 16.0813 15.1437C15.7762 15.2625 15.5066 15.4872 14.9672 15.9366C14.4304 16.384 14.162 16.6077 13.834 16.7275C13.5432 16.8337 13.1588 16.8731 12.8526 16.8279C12.5071 16.777 12.2426 16.6357 11.7135 16.3529C10.0675 15.4733 9.15977 14.5656 8.28011 12.9195C7.99738 12.3905 7.85602 12.1259 7.80511 11.7805C7.75998 11.4742 7.79932 11.0898 7.90554 10.7991C8.02536 10.4711 8.24905 10.2027 8.69643 9.66581C9.14586 9.12649 9.37058 8.85683 9.48939 8.55172C9.60309 8.25975 9.64686 7.94521 9.61719 7.63329C9.58618 7.30733 9.44362 6.98657 9.1585 6.34504Z" stroke="#141B34" stroke-width="1.5" stroke-linecap="round"/>
</svg>
