<svg width="24" height="25" viewBox="0 0 24 25" fill="none" xmlns="http://www.w3.org/2000/svg">
<path d="M20 9.63281C19.2048 5.64736 15.5128 2.63281 11.0793 2.63281C6.06549 2.63281 2 6.48802 2 11.2428C2 13.5274 2.93819 15.6032 4.46855 17.1436C4.80549 17.4828 5.03045 17.9462 4.93966 18.4231C4.78982 19.2029 4.45026 19.9303 3.95305 20.5365C5.26123 20.7777 6.62147 20.5605 7.78801 19.9455C8.20039 19.7282 8.40657 19.6195 8.55207 19.5974C8.65392 19.582 8.78659 19.5964 9 19.633" stroke="#141B34" stroke-width="1.5" stroke-linecap="round" stroke-linejoin="round"/>
<path d="M11 16.8945C11 19.8002 13.4628 22.1562 16.5 22.1562C16.8571 22.1566 17.2132 22.1236 17.564 22.0578C17.8165 22.0103 17.9428 21.9866 18.0309 22.0001C18.119 22.0135 18.244 22.08 18.4938 22.2128C19.2004 22.5886 20.0244 22.7213 20.8169 22.5739C20.5157 22.2035 20.31 21.759 20.2192 21.2824C20.1642 20.991 20.3005 20.7078 20.5046 20.5005C21.4317 19.5591 22 18.2906 22 16.8945C22 13.9888 19.5372 11.6328 16.5 11.6328C13.4628 11.6328 11 13.9888 11 16.8945Z" stroke="#141B34" stroke-width="1.5" stroke-linejoin="round"/>
</svg>
