<svg width="143" height="32" viewBox="0 0 143 32" fill="none" xmlns="http://www.w3.org/2000/svg">
<path d="M25.0667 13.2133C23.56 13.2133 22.2133 13.9467 21.3733 15.0667C20.5333 13.9467 19.1867 13.2133 17.68 13.2133C15.1333 13.2133 13.0667 15.2933 13.0667 17.8533C13.0667 18.84 13.2267 19.76 13.4933 20.6C14.8 24.7467 18.8533 27.24 20.8533 27.92C21.1333 28.0133 21.6 28.0133 21.88 27.92C23.88 27.24 27.9333 24.76 29.24 20.6C29.52 19.7467 29.6667 18.84 29.6667 17.8533C29.68 15.2933 27.6133 13.2133 25.0667 13.2133Z" fill="#093C6E"/>
<path d="M27.6667 11.12C27.6667 11.4267 27.36 11.6267 27.0667 11.5467C25.2667 11.08 23.2933 11.4667 21.8 12.5333C21.5067 12.7467 21.1067 12.7467 20.8267 12.5333C19.7733 11.76 18.4933 11.3333 17.1467 11.3333C13.7067 11.3333 10.9067 14.1467 10.9067 17.6133C10.9067 21.3733 12.7067 24.1867 14.52 26.0667C14.6133 26.16 14.5333 26.32 14.4133 26.2667C10.7733 25.0267 2.66666 19.88 2.66666 11.12C2.66666 7.25333 5.77333 4.13333 9.61333 4.13333C11.8933 4.13333 13.9067 5.22666 15.1733 6.92C16.4533 5.22666 18.4667 4.13333 20.7333 4.13333C24.56 4.13333 27.6667 7.25333 27.6667 11.12Z" fill="#093C6E"/>
<path d="M52.7225 22.388V24.5H41.2745V7.94H52.4825V10.028H43.9145V15.164H51.8105V17.252H43.9145V22.388H52.7225ZM62.3851 24.5L62.1451 22.652L61.4971 24.02C60.6331 24.62 59.5291 24.836 58.3291 24.836C56.0731 24.836 54.2251 23.54 54.2251 21.164C54.2251 18.332 56.4811 16.796 61.3051 16.796H62.1211V16.484C62.1211 16.004 62.1211 15.572 62.0731 15.092C62.0011 14.06 61.3531 13.34 59.8411 13.34C58.3051 13.34 57.5131 14.204 57.3691 15.788H54.7291C54.8971 13.004 56.9851 11.42 59.8891 11.42C63.1771 11.42 64.4731 12.812 64.6891 14.972C64.7371 15.5 64.7611 16.172 64.7611 16.772V21.26C64.7611 22.22 64.8091 23.084 65.0011 24.5H62.3851ZM59.2891 22.916C60.9451 22.916 62.1211 21.788 62.1211 19.724V18.548C59.0251 18.308 57.0091 19.004 57.0091 20.948C57.0091 22.292 57.8971 22.916 59.2891 22.916ZM72.2233 11.42C75.1513 11.42 76.7833 13.076 77.0713 15.404H74.3833C74.1193 14.06 73.3273 13.268 72.0313 13.268C70.7833 13.268 70.1833 13.964 70.1833 14.924C70.1833 16.076 71.1193 16.556 73.0153 17.06C75.7993 17.78 77.2633 18.884 77.2633 21.14C77.2633 23.612 75.0793 24.836 72.2953 24.836C69.4633 24.836 67.3753 23.564 67.0153 20.684H69.6793C69.9913 22.316 71.0713 22.964 72.3913 22.964C73.6153 22.964 74.5993 22.436 74.5993 21.332C74.5993 20.228 73.7353 19.628 71.5753 19.052C69.2473 18.452 67.5193 17.468 67.5193 15.236C67.5193 12.86 69.3913 11.42 72.2233 11.42ZM90.6933 11.756L85.5093 25.316C84.3333 28.34 82.9653 29.54 80.6613 29.54C80.1333 29.54 79.7973 29.54 79.4133 29.468V27.524C79.7253 27.548 79.9893 27.548 80.2533 27.548C81.4533 27.548 82.2693 27.044 82.8453 25.556L83.0373 25.1L77.9013 11.756H80.8533L84.3573 22.532L87.8373 11.756H90.6933ZM99.8639 7.604C104.184 7.604 106.44 10.004 106.776 13.268L106.8 13.508H104.184L104.136 13.268C103.68 11.036 102.312 9.62 99.8159 9.62C96.7439 9.62 94.7999 12.26 94.7999 16.172C94.7999 20.276 96.7679 22.82 99.6959 22.82C102.192 22.82 103.56 21.356 104.016 19.124L104.064 18.884H106.68L106.656 19.124C106.32 22.364 103.896 24.836 99.5759 24.836C94.8479 24.836 91.9439 21.332 91.9439 16.292C91.9439 11.084 95.2079 7.604 99.8639 7.604ZM116.76 24.5L116.52 22.652L115.872 24.02C115.008 24.62 113.904 24.836 112.704 24.836C110.448 24.836 108.6 23.54 108.6 21.164C108.6 18.332 110.856 16.796 115.68 16.796H116.496V16.484C116.496 16.004 116.496 15.572 116.448 15.092C116.376 14.06 115.728 13.34 114.216 13.34C112.68 13.34 111.888 14.204 111.744 15.788H109.104C109.272 13.004 111.36 11.42 114.264 11.42C117.552 11.42 118.848 12.812 119.064 14.972C119.112 15.5 119.136 16.172 119.136 16.772V21.26C119.136 22.22 119.184 23.084 119.376 24.5H116.76ZM113.664 22.916C115.32 22.916 116.496 21.788 116.496 19.724V18.548C113.4 18.308 111.384 19.004 111.384 20.948C111.384 22.292 112.272 22.916 113.664 22.916ZM128.182 11.444C128.542 11.444 128.806 11.492 129.07 11.588V13.652C126.646 13.484 125.134 14.732 125.134 17.876V24.5H122.494V11.756H125.134V13.916L126.214 12.164C126.79 11.708 127.534 11.444 128.182 11.444ZM141.712 17.804C141.712 18.044 141.712 18.404 141.664 18.86H132.52C132.736 21.908 134.128 22.916 135.856 22.916C137.392 22.916 138.592 21.98 138.856 20.372H141.52C140.968 23.396 138.544 24.836 135.76 24.836C132.352 24.836 129.784 22.676 129.784 18.164C129.784 14.132 132.352 11.42 136.024 11.42C139.72 11.42 141.712 14.204 141.712 17.804ZM135.928 13.34C134.128 13.34 132.832 14.564 132.544 17.012H139C138.808 14.66 137.776 13.34 135.928 13.34Z" fill="#093C6E"/>
</svg>
