<svg width="25" height="24" viewBox="0 0 25 24" fill="none" xmlns="http://www.w3.org/2000/svg">
<path d="M14.8334 16.5L18.5494 17.6177C19.9368 18.0423 20.9675 19.1553 21.3097 20.5099C21.4449 21.0456 20.9823 21.5 20.427 21.5H4.23977C3.68445 21.5 3.22183 21.0456 3.35713 20.5099C3.69931 19.1553 4.72997 18.0423 6.11739 17.6177L9.83338 16.5V14.345C8.5486 14.1822 7.36377 13.897 6.33338 13.5161C6.83338 12.5322 7.33338 11.0563 7.33338 7.61264C7.33338 1.70919 12.8334 1.70912 14.3334 3.67672C17.3334 3.18499 17.3334 5.64483 17.3334 8.59655C17.3334 10.9579 18.0001 12.8602 18.3334 13.5161C17.303 13.897 16.1182 14.1822 14.8334 14.345V16.5Z" stroke="#093C6E" stroke-width="1.5" stroke-linejoin="round"/>
</svg>
