<svg width="32" height="32" viewBox="0 0 32 32" fill="none" xmlns="http://www.w3.org/2000/svg">
<g filter="url(#filter0_d_51_2611)">
<rect x="25" y="6" width="2.35" height="1.73" rx="0.32" fill="white" shape-rendering="crispEdges"/>
<path d="M25.6113 6.23999H25.5872V6.19069H25.5419V6.23999H25.5177V6.12577H25.5419V6.17054H25.5872V6.12577H25.6113V6.23999ZM25.7177 6.19616C25.7177 6.20345 25.7167 6.20991 25.7148 6.21554C25.7128 6.22116 25.71 6.22593 25.7062 6.22983C25.7025 6.23369 25.6981 6.2366 25.6928 6.23858C25.6876 6.24056 25.6817 6.24155 25.6751 6.24155C25.669 6.24155 25.6633 6.24056 25.6582 6.23858C25.6531 6.2366 25.6486 6.23369 25.6448 6.22983C25.6411 6.22593 25.6382 6.22116 25.6361 6.21554C25.6341 6.20991 25.633 6.20345 25.633 6.19616C25.633 6.18647 25.6348 6.17827 25.6382 6.17155C25.6416 6.16483 25.6465 6.15973 25.6529 6.15624C25.6592 6.15275 25.6668 6.15101 25.6756 6.15101C25.6838 6.15101 25.691 6.15275 25.6973 6.15624C25.7037 6.15973 25.7087 6.16483 25.7123 6.17155C25.7159 6.17827 25.7177 6.18647 25.7177 6.19616ZM25.6573 6.19616C25.6573 6.20189 25.658 6.20671 25.6592 6.21062C25.6605 6.21452 25.6624 6.21746 25.6651 6.21944C25.6677 6.22142 25.6712 6.22241 25.6755 6.22241C25.6797 6.22241 25.6831 6.22142 25.6857 6.21944C25.6883 6.21746 25.6903 6.21452 25.6915 6.21062C25.6927 6.20671 25.6933 6.20189 25.6933 6.19616C25.6933 6.19038 25.6927 6.18559 25.6915 6.18179C25.6903 6.17793 25.6883 6.17504 25.6857 6.17312C25.683 6.17119 25.6796 6.17022 25.6753 6.17022C25.669 6.17022 25.6644 6.17239 25.6616 6.17671C25.6587 6.18103 25.6573 6.18752 25.6573 6.19616ZM25.84 6.15101C25.8499 6.15101 25.8574 6.15356 25.8624 6.15866C25.8675 6.16371 25.8701 6.17184 25.8701 6.18304V6.23999H25.8462V6.18897C25.8462 6.18272 25.8451 6.17801 25.843 6.17483C25.8408 6.17166 25.8375 6.17007 25.833 6.17007C25.8267 6.17007 25.8223 6.17233 25.8196 6.17687C25.8169 6.18134 25.8156 6.18778 25.8156 6.19616V6.23999H25.7918V6.18897C25.7918 6.18481 25.7913 6.18132 25.7904 6.17851C25.7894 6.17569 25.788 6.17358 25.7861 6.17218C25.7842 6.17077 25.7817 6.17007 25.7787 6.17007C25.7742 6.17007 25.7707 6.17119 25.7682 6.17343C25.7657 6.17562 25.7639 6.17887 25.7628 6.18319C25.7618 6.18746 25.7612 6.1927 25.7612 6.1989V6.23999H25.7374V6.15265H25.7556L25.7588 6.16382H25.7601C25.7619 6.1608 25.7641 6.15835 25.7668 6.15647C25.7695 6.1546 25.7725 6.15322 25.7757 6.15233C25.7789 6.15145 25.7822 6.15101 25.7855 6.15101C25.7919 6.15101 25.7974 6.15205 25.8018 6.15413C25.8063 6.15621 25.8097 6.15944 25.8121 6.16382H25.8142C25.8168 6.15934 25.8205 6.15608 25.8252 6.15405C25.83 6.15202 25.8349 6.15101 25.84 6.15101ZM25.9306 6.15101C25.9387 6.15101 25.9456 6.15257 25.9515 6.15569C25.9573 6.15877 25.9618 6.16325 25.965 6.16913C25.9682 6.17502 25.9698 6.1822 25.9698 6.19069V6.20226H25.9134C25.9137 6.20897 25.9157 6.21426 25.9194 6.21812C25.9232 6.22192 25.9285 6.22382 25.9352 6.22382C25.9408 6.22382 25.9459 6.22325 25.9505 6.2221C25.9552 6.22095 25.9599 6.21924 25.9648 6.21694V6.23538C25.9605 6.23752 25.956 6.23908 25.9512 6.24007C25.9466 6.24106 25.9408 6.24155 25.9341 6.24155C25.9254 6.24155 25.9176 6.23994 25.9108 6.23671C25.9041 6.23348 25.8988 6.22856 25.895 6.22194C25.8912 6.21533 25.8893 6.207 25.8893 6.19694C25.8893 6.18674 25.891 6.17825 25.8944 6.17147C25.8979 6.16465 25.9028 6.15955 25.909 6.15616C25.9152 6.15272 25.9224 6.15101 25.9306 6.15101ZM25.9308 6.16796C25.9261 6.16796 25.9223 6.16944 25.9192 6.17241C25.9162 6.17538 25.9144 6.18004 25.914 6.1864H25.9474C25.9474 6.18285 25.9467 6.1797 25.9455 6.17694C25.9443 6.17418 25.9424 6.172 25.94 6.17038C25.9376 6.16877 25.9345 6.16796 25.9308 6.16796Z" fill="#093C6E"/>
<path d="M25.5169 6.44961C25.5169 6.45638 25.5152 6.46216 25.5118 6.46695C25.5085 6.47169 25.5038 6.47531 25.4977 6.47781C25.4917 6.48031 25.4846 6.48156 25.4764 6.48156C25.4721 6.48156 25.468 6.48135 25.4641 6.48093C25.4603 6.48052 25.4567 6.47992 25.4535 6.47914C25.4503 6.47836 25.4474 6.47739 25.445 6.47625V6.46351C25.4489 6.46513 25.4537 6.46664 25.4593 6.46804C25.4649 6.4694 25.4708 6.47007 25.4769 6.47007C25.4827 6.47007 25.4875 6.46932 25.4915 6.46781C25.4954 6.46625 25.4984 6.46403 25.5005 6.46117C25.5025 6.45825 25.5036 6.45476 25.5036 6.4507C25.5036 6.44679 25.5027 6.44354 25.501 6.44093C25.4993 6.43828 25.4964 6.43588 25.4924 6.43375C25.4885 6.43156 25.483 6.42924 25.4762 6.42679C25.4713 6.42507 25.467 6.4232 25.4633 6.42117C25.4597 6.41908 25.4566 6.41674 25.4541 6.41414C25.4516 6.41153 25.4497 6.40851 25.4483 6.40507C25.4471 6.40164 25.4465 6.3977 25.4465 6.39328C25.4465 6.38718 25.448 6.38197 25.4511 6.37765C25.4542 6.37328 25.4585 6.36994 25.464 6.36765C25.4695 6.36531 25.4758 6.36414 25.483 6.36414C25.4891 6.36414 25.4947 6.36471 25.4998 6.36586C25.505 6.367 25.5098 6.36854 25.5141 6.37046L25.51 6.38187C25.5059 6.38015 25.5015 6.37872 25.4969 6.37757C25.4923 6.37643 25.4875 6.37586 25.4826 6.37586C25.4778 6.37586 25.4736 6.37658 25.4702 6.37804C25.4669 6.37945 25.4643 6.38145 25.4626 6.38406C25.4608 6.38666 25.4599 6.38976 25.4599 6.39336C25.4599 6.39737 25.4607 6.4007 25.4624 6.40336C25.4641 6.40601 25.4668 6.40838 25.4705 6.41046C25.4743 6.4125 25.4792 6.41463 25.4854 6.41687C25.4921 6.41932 25.4978 6.42192 25.5025 6.42468C25.5072 6.42739 25.5107 6.43072 25.5132 6.43468C25.5156 6.43859 25.5169 6.44356 25.5169 6.44961ZM25.5712 6.39281C25.5785 6.39281 25.5848 6.39442 25.59 6.39765C25.5952 6.40088 25.5992 6.40541 25.6019 6.41125C25.6047 6.41703 25.6061 6.4238 25.6061 6.43156V6.43961H25.5469C25.5471 6.44966 25.5496 6.45731 25.5544 6.46257C25.5593 6.46783 25.5661 6.47046 25.5749 6.47046C25.5803 6.47046 25.5851 6.46997 25.5893 6.46898C25.5935 6.46799 25.5978 6.46653 25.6023 6.46461V6.47601C25.5979 6.47794 25.5936 6.47934 25.5894 6.48023C25.5851 6.48112 25.5801 6.48156 25.5744 6.48156C25.5661 6.48156 25.5589 6.47989 25.5528 6.47656C25.5467 6.47317 25.542 6.46822 25.5386 6.46171C25.5352 6.4552 25.5335 6.44724 25.5335 6.43781C25.5335 6.42859 25.535 6.42062 25.5381 6.4139C25.5412 6.40713 25.5456 6.40192 25.5512 6.39828C25.5569 6.39463 25.5636 6.39281 25.5712 6.39281ZM25.5711 6.40343C25.5642 6.40343 25.5586 6.4057 25.5545 6.41023C25.5504 6.41476 25.548 6.42109 25.5472 6.42921H25.5925C25.5924 6.42411 25.5916 6.41963 25.5901 6.41578C25.5886 6.41187 25.5862 6.40885 25.5831 6.40671C25.58 6.40453 25.576 6.40343 25.5711 6.40343ZM25.667 6.39281C25.6687 6.39281 25.6705 6.39291 25.6724 6.39312C25.6743 6.39328 25.676 6.39351 25.6774 6.39382L25.6758 6.40586C25.6744 6.40549 25.6728 6.4052 25.6711 6.405C25.6694 6.40479 25.6678 6.40468 25.6662 6.40468C25.6628 6.40468 25.6595 6.40539 25.6565 6.40679C25.6535 6.40815 25.6508 6.41013 25.6485 6.41273C25.6462 6.41528 25.6444 6.41838 25.6431 6.42203C25.6418 6.42562 25.6412 6.42963 25.6412 6.43406V6.48H25.6281V6.39437H25.6389L25.6403 6.41015H25.6408C25.6426 6.40697 25.6448 6.40408 25.6473 6.40148C25.6498 6.39882 25.6526 6.39671 25.6559 6.39515C25.6593 6.39359 25.663 6.39281 25.667 6.39281ZM25.7124 6.48L25.6799 6.39437H25.6938L25.7126 6.44617C25.7139 6.44971 25.7153 6.45362 25.7166 6.45789C25.718 6.46216 25.7189 6.46559 25.7194 6.4682H25.72C25.7206 6.46559 25.7217 6.46216 25.7231 6.45789C25.7246 6.45356 25.7259 6.44966 25.7271 6.44617L25.7459 6.39437H25.7598L25.7273 6.48H25.7124ZM25.7866 6.39437V6.48H25.7736V6.39437H25.7866ZM25.7802 6.36234C25.7824 6.36234 25.7842 6.36304 25.7857 6.36445C25.7873 6.3658 25.788 6.36794 25.788 6.37086C25.788 6.37372 25.7873 6.37586 25.7857 6.37726C25.7842 6.37867 25.7824 6.37937 25.7802 6.37937C25.778 6.37937 25.7761 6.37867 25.7746 6.37726C25.7731 6.37586 25.7724 6.37372 25.7724 6.37086C25.7724 6.36794 25.7731 6.3658 25.7746 6.36445C25.7761 6.36304 25.778 6.36234 25.7802 6.36234ZM25.8483 6.48156C25.8406 6.48156 25.8338 6.47997 25.828 6.47679C25.8221 6.47362 25.8175 6.46877 25.8142 6.46226C25.8109 6.45575 25.8093 6.44755 25.8093 6.43765C25.8093 6.42729 25.811 6.41882 25.8144 6.41226C25.8179 6.40565 25.8227 6.40075 25.8288 6.39757C25.8349 6.3944 25.8418 6.39281 25.8496 6.39281C25.8539 6.39281 25.858 6.39325 25.8619 6.39414C25.866 6.39497 25.8692 6.39604 25.8718 6.39734L25.8679 6.4082C25.8653 6.40716 25.8623 6.40622 25.8588 6.40539C25.8554 6.40455 25.8523 6.40414 25.8493 6.40414C25.8433 6.40414 25.8384 6.40541 25.8344 6.40796C25.8305 6.41052 25.8276 6.41427 25.8256 6.41921C25.8237 6.42416 25.8227 6.43026 25.8227 6.4375C25.8227 6.44442 25.8237 6.45033 25.8255 6.45523C25.8275 6.46013 25.8303 6.46388 25.8341 6.46648C25.8379 6.46903 25.8426 6.47031 25.8483 6.47031C25.8528 6.47031 25.8569 6.46984 25.8605 6.4689C25.8642 6.46791 25.8675 6.46677 25.8705 6.46546V6.47703C25.8676 6.47849 25.8644 6.47961 25.8608 6.48039C25.8574 6.48117 25.8532 6.48156 25.8483 6.48156ZM25.9237 6.39281C25.931 6.39281 25.9373 6.39442 25.9425 6.39765C25.9477 6.40088 25.9517 6.40541 25.9544 6.41125C25.9572 6.41703 25.9586 6.4238 25.9586 6.43156V6.43961H25.8994C25.8996 6.44966 25.9021 6.45731 25.9069 6.46257C25.9118 6.46783 25.9186 6.47046 25.9274 6.47046C25.9328 6.47046 25.9376 6.46997 25.9418 6.46898C25.946 6.46799 25.9503 6.46653 25.9548 6.46461V6.47601C25.9504 6.47794 25.9461 6.47934 25.9419 6.48023C25.9376 6.48112 25.9326 6.48156 25.9269 6.48156C25.9186 6.48156 25.9114 6.47989 25.9053 6.47656C25.8992 6.47317 25.8945 6.46822 25.8911 6.46171C25.8877 6.4552 25.886 6.44724 25.886 6.43781C25.886 6.42859 25.8875 6.42062 25.8906 6.4139C25.8937 6.40713 25.8981 6.40192 25.9037 6.39828C25.9094 6.39463 25.9161 6.39281 25.9237 6.39281ZM25.9236 6.40343C25.9167 6.40343 25.9111 6.4057 25.907 6.41023C25.9029 6.41476 25.9005 6.42109 25.8997 6.42921H25.945C25.9449 6.42411 25.9441 6.41963 25.9426 6.41578C25.9411 6.41187 25.9387 6.40885 25.9356 6.40671C25.9325 6.40453 25.9285 6.40343 25.9236 6.40343ZM26.036 6.45656C26.036 6.46203 26.0346 6.46664 26.0319 6.47039C26.0292 6.47408 26.0253 6.47687 26.0201 6.47875C26.0151 6.48062 26.0091 6.48156 26.002 6.48156C25.996 6.48156 25.9908 6.48109 25.9865 6.48015C25.9821 6.47921 25.9783 6.47789 25.975 6.47617V6.46421C25.9785 6.46593 25.9826 6.4675 25.9875 6.4689C25.9923 6.47031 25.9973 6.47101 26.0023 6.47101C26.0097 6.47101 26.0151 6.46981 26.0184 6.46742C26.0218 6.46502 26.0234 6.46177 26.0234 6.45765C26.0234 6.45531 26.0228 6.45325 26.0214 6.45148C26.0201 6.44966 26.0179 6.44791 26.0148 6.44625C26.0116 6.44453 26.0073 6.44265 26.0018 6.44062C25.9963 6.43854 25.9916 6.43648 25.9876 6.43445C25.9836 6.43237 25.9805 6.42984 25.9783 6.42687C25.9762 6.4239 25.9751 6.42005 25.9751 6.41531C25.9751 6.40807 25.9781 6.40252 25.9839 6.39867C25.9898 6.39476 25.9975 6.39281 26.007 6.39281C26.0122 6.39281 26.017 6.39333 26.0215 6.39437C26.026 6.39536 26.0302 6.39671 26.0341 6.39843L26.0298 6.40882C26.0262 6.40731 26.0224 6.40604 26.0184 6.405C26.0144 6.40395 26.0103 6.40343 26.0062 6.40343C26.0002 6.40343 25.9956 6.40442 25.9923 6.4064C25.9892 6.40838 25.9876 6.41109 25.9876 6.41453C25.9876 6.41718 25.9883 6.41937 25.9898 6.42109C25.9913 6.42281 25.9937 6.42442 25.9969 6.42593C26.0002 6.42744 26.0045 6.42921 26.0099 6.43125C26.0153 6.43322 26.0199 6.43528 26.0238 6.43742C26.0277 6.4395 26.0307 6.44205 26.0328 6.44507C26.0349 6.44804 26.036 6.45187 26.036 6.45656Z" fill="#093C6E"/>
<path d="M25.4847 6.71999L25.4706 6.68374H25.4248L25.4108 6.71999H25.3974L25.4421 6.6053H25.4541L25.4984 6.71999H25.4847ZM25.4666 6.67194L25.4533 6.63592C25.453 6.63499 25.4524 6.63345 25.4517 6.63131C25.451 6.62918 25.4503 6.62697 25.4496 6.62467C25.4489 6.62238 25.4483 6.62053 25.4478 6.61913C25.4473 6.62126 25.4467 6.6234 25.4461 6.62553C25.4455 6.62762 25.4449 6.62957 25.4444 6.63139C25.4438 6.63316 25.4433 6.63467 25.4429 6.63592L25.4293 6.67194H25.4666ZM25.5253 6.59842V6.62881C25.5253 6.6323 25.5252 6.63569 25.525 6.63897C25.5248 6.64225 25.5247 6.6448 25.5246 6.64663H25.5253C25.5276 6.64277 25.531 6.63952 25.5355 6.63686C25.5399 6.6342 25.5455 6.63288 25.5524 6.63288C25.5631 6.63288 25.5717 6.6366 25.578 6.64405C25.5844 6.65144 25.5876 6.66246 25.5876 6.6771C25.5876 6.68673 25.5862 6.69486 25.5833 6.70147C25.5804 6.70808 25.5762 6.71308 25.5709 6.71647C25.5656 6.71986 25.5593 6.72155 25.5521 6.72155C25.5453 6.72155 25.5398 6.7203 25.5354 6.7178C25.5311 6.71525 25.5277 6.71215 25.5254 6.7085H25.5244L25.5217 6.71999H25.5123V6.59842H25.5253ZM25.5503 6.64374C25.5441 6.64374 25.5392 6.64496 25.5355 6.64741C25.5319 6.6498 25.5293 6.65345 25.5276 6.65835C25.5261 6.66319 25.5253 6.66933 25.5253 6.67678V6.67749C25.5253 6.68827 25.5271 6.69652 25.5307 6.70225C25.5343 6.70793 25.5408 6.71077 25.5503 6.71077C25.5583 6.71077 25.5642 6.70785 25.5682 6.70202C25.5722 6.69618 25.5742 6.68785 25.5742 6.67702C25.5742 6.66598 25.5722 6.65767 25.5683 6.6521C25.5644 6.64652 25.5584 6.64374 25.5503 6.64374ZM25.6841 6.67702C25.6841 6.68405 25.6832 6.69032 25.6814 6.69585C25.6796 6.70137 25.6769 6.70603 25.6735 6.70983C25.6701 6.71363 25.6659 6.71655 25.661 6.71858C25.6562 6.72056 25.6507 6.72155 25.6445 6.72155C25.6388 6.72155 25.6335 6.72056 25.6287 6.71858C25.624 6.71655 25.6199 6.71363 25.6164 6.70983C25.613 6.70603 25.6103 6.70137 25.6083 6.69585C25.6065 6.69032 25.6055 6.68405 25.6055 6.67702C25.6055 6.66764 25.6071 6.65967 25.6103 6.65311C25.6135 6.6465 25.618 6.64147 25.6239 6.63803C25.6298 6.63454 25.6369 6.6328 25.6451 6.6328C25.6529 6.6328 25.6597 6.63454 25.6655 6.63803C25.6714 6.64152 25.676 6.64657 25.6792 6.65319C25.6825 6.65975 25.6841 6.66769 25.6841 6.67702ZM25.619 6.67702C25.619 6.68389 25.6199 6.68986 25.6217 6.69491C25.6235 6.69996 25.6263 6.70387 25.6301 6.70663C25.6339 6.70939 25.6388 6.71077 25.6448 6.71077C25.6508 6.71077 25.6556 6.70939 25.6594 6.70663C25.6633 6.70387 25.6661 6.69996 25.668 6.69491C25.6698 6.68986 25.6707 6.68389 25.6707 6.67702C25.6707 6.67019 25.6698 6.66431 25.668 6.65936C25.6661 6.65436 25.6633 6.65051 25.6595 6.6478C25.6557 6.64509 25.6508 6.64374 25.6448 6.64374C25.6358 6.64374 25.6293 6.64668 25.6251 6.65256C25.621 6.65845 25.619 6.6666 25.619 6.67702ZM25.7773 6.63436V6.71999H25.7666L25.7648 6.70795H25.7641C25.7623 6.71092 25.76 6.71342 25.7572 6.71545C25.7544 6.71749 25.7512 6.719 25.7476 6.71999C25.7442 6.72103 25.7404 6.72155 25.7365 6.72155C25.7297 6.72155 25.724 6.72045 25.7194 6.71827C25.7149 6.71608 25.7114 6.71269 25.7091 6.70811C25.7068 6.70353 25.7056 6.69764 25.7056 6.69045V6.63436H25.7187V6.68952C25.7187 6.69665 25.7204 6.70199 25.7236 6.70553C25.7268 6.70902 25.7317 6.71077 25.7383 6.71077C25.7447 6.71077 25.7498 6.70957 25.7535 6.70717C25.7573 6.70478 25.76 6.70126 25.7617 6.69663C25.7634 6.69194 25.7642 6.68621 25.7642 6.67944V6.63436H25.7773ZM25.8323 6.71092C25.8345 6.71092 25.8367 6.71074 25.8389 6.71038C25.8411 6.71001 25.843 6.70957 25.8444 6.70905V6.71913C25.8429 6.7198 25.8407 6.72038 25.838 6.72085C25.8354 6.72131 25.8328 6.72155 25.8302 6.72155C25.8257 6.72155 25.8216 6.72077 25.8179 6.7192C25.8142 6.71759 25.8112 6.71488 25.809 6.71108C25.8068 6.70728 25.8057 6.70202 25.8057 6.6953V6.64452H25.7935V6.63819L25.8058 6.63311L25.8109 6.61452H25.8187V6.63436H25.8438V6.64452H25.8187V6.69491C25.8187 6.70027 25.82 6.70428 25.8224 6.70694C25.8249 6.7096 25.8282 6.71092 25.8323 6.71092ZM25.9916 6.60577V6.67967C25.9916 6.68775 25.99 6.69493 25.9867 6.70124C25.9835 6.70754 25.9786 6.71251 25.972 6.71616C25.9655 6.71975 25.9572 6.72155 25.9473 6.72155C25.9332 6.72155 25.9225 6.71772 25.9151 6.71006C25.9077 6.70241 25.9041 6.69217 25.9041 6.67936V6.60577H25.9174V6.67975C25.9174 6.68944 25.92 6.69691 25.9251 6.70217C25.9302 6.70743 25.9379 6.71006 25.9481 6.71006C25.9551 6.71006 25.9608 6.70881 25.9652 6.70631C25.9697 6.70376 25.973 6.70022 25.9751 6.69569C25.9773 6.69111 25.9784 6.68582 25.9784 6.67983V6.60577H25.9916ZM26.0754 6.69655C26.0754 6.70202 26.074 6.70663 26.0712 6.71038C26.0685 6.71407 26.0646 6.71686 26.0595 6.71874C26.0545 6.72061 26.0484 6.72155 26.0414 6.72155C26.0354 6.72155 26.0302 6.72108 26.0258 6.72014C26.0215 6.7192 26.0176 6.71788 26.0144 6.71616V6.7042C26.0179 6.70592 26.022 6.70749 26.0269 6.70889C26.0317 6.7103 26.0367 6.711 26.0417 6.711C26.0491 6.711 26.0545 6.7098 26.0578 6.70741C26.0611 6.70501 26.0628 6.70176 26.0628 6.69764C26.0628 6.6953 26.0621 6.69324 26.0608 6.69147C26.0595 6.68965 26.0573 6.6879 26.0541 6.68624C26.051 6.68452 26.0467 6.68264 26.0412 6.68061C26.0357 6.67853 26.031 6.67647 26.0269 6.67444C26.023 6.67236 26.0199 6.66983 26.0177 6.66686C26.0156 6.66389 26.0145 6.66004 26.0145 6.6553C26.0145 6.64806 26.0174 6.64251 26.0233 6.63866C26.0292 6.63475 26.0369 6.6328 26.0464 6.6328C26.0516 6.6328 26.0564 6.63332 26.0608 6.63436C26.0654 6.63535 26.0696 6.6367 26.0735 6.63842L26.0691 6.64881C26.0656 6.6473 26.0618 6.64603 26.0578 6.64499C26.0538 6.64394 26.0497 6.64342 26.0455 6.64342C26.0395 6.64342 26.0349 6.64441 26.0317 6.64639C26.0285 6.64837 26.0269 6.65108 26.0269 6.65452C26.0269 6.65717 26.0277 6.65936 26.0291 6.66108C26.0306 6.6628 26.033 6.66441 26.0363 6.66592C26.0396 6.66743 26.0439 6.6692 26.0493 6.67124C26.0547 6.67322 26.0593 6.67527 26.0632 6.67741C26.0671 6.67949 26.0701 6.68204 26.0722 6.68506C26.0743 6.68803 26.0754 6.69186 26.0754 6.69655Z" fill="#093C6E"/>
<path d="M25.517 6.85585C25.5107 6.85585 25.505 6.85694 25.5 6.85913C25.495 6.86127 25.4907 6.86439 25.4872 6.86851C25.4837 6.87257 25.481 6.87749 25.4791 6.88327C25.4773 6.88905 25.4763 6.89556 25.4763 6.9028C25.4763 6.91239 25.4778 6.92072 25.4808 6.9278C25.4838 6.93484 25.4883 6.94028 25.4942 6.94413C25.5002 6.94799 25.5077 6.94991 25.5166 6.94991C25.5217 6.94991 25.5265 6.9495 25.531 6.94866C25.5355 6.94778 25.5399 6.94668 25.5442 6.94538V6.95694C25.54 6.95851 25.5357 6.95965 25.5311 6.96038C25.5265 6.96116 25.5211 6.96155 25.5148 6.96155C25.5031 6.96155 25.4934 6.95916 25.4856 6.95437C25.4779 6.94952 25.472 6.9427 25.4681 6.9339C25.4643 6.9251 25.4623 6.9147 25.4623 6.90273C25.4623 6.89408 25.4635 6.88619 25.4659 6.87905C25.4684 6.87187 25.4719 6.86567 25.4766 6.86046C25.4812 6.85525 25.487 6.85124 25.4937 6.84843C25.5006 6.84556 25.5084 6.84413 25.5172 6.84413C25.523 6.84413 25.5285 6.8447 25.5339 6.84585C25.5393 6.847 25.5441 6.84864 25.5484 6.85077L25.5431 6.86202C25.5395 6.86036 25.5355 6.85892 25.5311 6.85773C25.5268 6.85648 25.5221 6.85585 25.517 6.85585ZM25.6408 6.91702C25.6408 6.92405 25.6399 6.93033 25.6381 6.93585C25.6363 6.94137 25.6337 6.94603 25.6302 6.94984C25.6268 6.95364 25.6226 6.95655 25.6177 6.95859C25.6129 6.96056 25.6074 6.96155 25.6012 6.96155C25.5955 6.96155 25.5903 6.96056 25.5855 6.95859C25.5807 6.95655 25.5766 6.95364 25.5731 6.94984C25.5697 6.94603 25.567 6.94137 25.5651 6.93585C25.5632 6.93033 25.5623 6.92405 25.5623 6.91702C25.5623 6.90765 25.5638 6.89968 25.567 6.89312C25.5702 6.8865 25.5747 6.88148 25.5806 6.87804C25.5866 6.87455 25.5936 6.8728 25.6018 6.8728C25.6096 6.8728 25.6164 6.87455 25.6223 6.87804C25.6281 6.88153 25.6327 6.88658 25.6359 6.89319C25.6392 6.89976 25.6408 6.9077 25.6408 6.91702ZM25.5757 6.91702C25.5757 6.9239 25.5766 6.92986 25.5784 6.93491C25.5803 6.93997 25.5831 6.94387 25.5869 6.94663C25.5907 6.94939 25.5956 6.95077 25.6016 6.95077C25.6075 6.95077 25.6124 6.94939 25.6162 6.94663C25.62 6.94387 25.6229 6.93997 25.6247 6.93491C25.6265 6.92986 25.6274 6.9239 25.6274 6.91702C25.6274 6.9102 25.6265 6.90431 25.6247 6.89937C25.6229 6.89437 25.62 6.89051 25.6162 6.8878C25.6124 6.8851 25.6075 6.88374 25.6015 6.88374C25.5926 6.88374 25.586 6.88668 25.5819 6.89257C25.5778 6.89845 25.5757 6.90661 25.5757 6.91702ZM25.7038 6.8728C25.714 6.8728 25.7217 6.8753 25.7269 6.8803C25.7321 6.88525 25.7347 6.89322 25.7347 6.90421V6.95999H25.7219V6.90507C25.7219 6.89793 25.7202 6.8926 25.7169 6.88905C25.7137 6.88551 25.7087 6.88374 25.702 6.88374C25.6925 6.88374 25.6859 6.88642 25.682 6.89179C25.6782 6.89715 25.6762 6.90494 25.6762 6.91515V6.95999H25.6633V6.87437H25.6737L25.6757 6.88671H25.6764C25.6782 6.88369 25.6805 6.88116 25.6833 6.87913C25.6862 6.87705 25.6893 6.87549 25.6928 6.87444C25.6963 6.87335 25.7 6.8728 25.7038 6.8728ZM25.7891 6.95093C25.7912 6.95093 25.7934 6.95075 25.7956 6.95038C25.7979 6.95002 25.7997 6.94957 25.8011 6.94905V6.95913C25.7996 6.95981 25.7975 6.96038 25.7948 6.96085C25.7921 6.96132 25.7895 6.96155 25.7869 6.96155C25.7824 6.96155 25.7783 6.96077 25.7746 6.95921C25.7709 6.9576 25.7679 6.95489 25.7657 6.95109C25.7635 6.94728 25.7624 6.94202 25.7624 6.9353V6.88452H25.7502V6.87819L25.7625 6.87312L25.7676 6.85452H25.7755V6.87437H25.8005V6.88452H25.7755V6.93491C25.7755 6.94028 25.7767 6.94429 25.7791 6.94694C25.7816 6.9496 25.7849 6.95093 25.7891 6.95093ZM25.8505 6.87296C25.8607 6.87296 25.8682 6.87525 25.8732 6.87984C25.8781 6.88442 25.8806 6.89174 25.8806 6.90179V6.95999H25.8712L25.8687 6.94734H25.868C25.8656 6.95046 25.8631 6.95309 25.8605 6.95523C25.8579 6.95731 25.8549 6.9589 25.8515 6.95999C25.8481 6.96103 25.8439 6.96155 25.839 6.96155C25.8338 6.96155 25.8291 6.96064 25.8251 6.95882C25.8211 6.957 25.8179 6.95424 25.8155 6.95054C25.8132 6.94684 25.8121 6.94215 25.8121 6.93648C25.8121 6.92793 25.8155 6.92137 25.8223 6.91679C25.829 6.9122 25.8393 6.9097 25.8532 6.90929L25.868 6.90866V6.90343C25.868 6.89603 25.8664 6.89085 25.8632 6.88788C25.86 6.88491 25.8555 6.88343 25.8498 6.88343C25.8453 6.88343 25.841 6.88408 25.8369 6.88538C25.8329 6.88668 25.829 6.88822 25.8254 6.88999L25.8214 6.88015C25.8253 6.87817 25.8297 6.87648 25.8347 6.87507C25.8397 6.87366 25.8449 6.87296 25.8505 6.87296ZM25.8678 6.9178L25.8548 6.91835C25.8441 6.91877 25.8366 6.92051 25.8322 6.92359C25.8278 6.92666 25.8256 6.93101 25.8256 6.93663C25.8256 6.94153 25.8271 6.94515 25.8301 6.94749C25.833 6.94984 25.837 6.95101 25.8419 6.95101C25.8495 6.95101 25.8557 6.9489 25.8605 6.94468C25.8654 6.94046 25.8678 6.93413 25.8678 6.92569V6.9178ZM25.9416 6.96155C25.9339 6.96155 25.9271 6.95997 25.9212 6.95679C25.9154 6.95361 25.9108 6.94877 25.9075 6.94226C25.9042 6.93575 25.9026 6.92754 25.9026 6.91765C25.9026 6.90728 25.9043 6.89882 25.9077 6.89226C25.9112 6.88564 25.916 6.88075 25.9221 6.87757C25.9282 6.87439 25.9351 6.8728 25.9429 6.8728C25.9472 6.8728 25.9513 6.87325 25.9552 6.87413C25.9592 6.87497 25.9625 6.87603 25.9651 6.87734L25.9612 6.88819C25.9586 6.88715 25.9555 6.88622 25.9521 6.88538C25.9487 6.88455 25.9455 6.88413 25.9426 6.88413C25.9366 6.88413 25.9317 6.88541 25.9277 6.88796C25.9238 6.89051 25.9209 6.89426 25.9189 6.89921C25.917 6.90416 25.916 6.91025 25.916 6.91749C25.916 6.92442 25.9169 6.93033 25.9188 6.93523C25.9207 6.94012 25.9236 6.94387 25.9273 6.94648C25.9311 6.94903 25.9359 6.9503 25.9416 6.9503C25.9461 6.9503 25.9502 6.94984 25.9538 6.9489C25.9575 6.94791 25.9608 6.94676 25.9637 6.94546V6.95702C25.9609 6.95848 25.9577 6.9596 25.9541 6.96038C25.9506 6.96116 25.9465 6.96155 25.9416 6.96155ZM26.0117 6.95093C26.0138 6.95093 26.016 6.95075 26.0183 6.95038C26.0205 6.95002 26.0223 6.94957 26.0237 6.94905V6.95913C26.0222 6.95981 26.0201 6.96038 26.0174 6.96085C26.0148 6.96132 26.0122 6.96155 26.0096 6.96155C26.0051 6.96155 26.001 6.96077 25.9973 6.95921C25.9936 6.9576 25.9906 6.95489 25.9883 6.95109C25.9862 6.94728 25.9851 6.94202 25.9851 6.9353V6.88452H25.9729V6.87819L25.9851 6.87312L25.9903 6.85452H25.9981V6.87437H26.0232V6.88452H25.9981V6.93491C25.9981 6.94028 25.9993 6.94429 26.0018 6.94694C26.0043 6.9496 26.0076 6.95093 26.0117 6.95093Z" fill="#093C6E"/>
<rect x="25.24" y="7.24998" width="1.87" height="0.24" rx="0.12" fill="#093C6E"/>
<path d="M25.7954 7.30795H25.8381V7.36529C25.8321 7.36727 25.8259 7.36881 25.8195 7.3699C25.8131 7.371 25.8059 7.37154 25.7979 7.37154C25.7863 7.37154 25.7765 7.36925 25.7684 7.36467C25.7604 7.36003 25.7543 7.35334 25.7501 7.34459C25.746 7.33579 25.7439 7.32519 25.7439 7.31279C25.7439 7.30087 25.7462 7.29053 25.7508 7.28178C25.7555 7.27297 25.7622 7.26618 25.7711 7.26139C25.7799 7.25654 25.7906 7.25412 25.8033 7.25412C25.8094 7.25412 25.8154 7.25475 25.8212 7.256C25.8271 7.25719 25.8324 7.25886 25.8372 7.261L25.8307 7.27646C25.8268 7.27464 25.8225 7.2731 25.8177 7.27185C25.8129 7.2706 25.8079 7.26998 25.8028 7.26998C25.7946 7.26998 25.7875 7.27175 25.7816 7.27529C25.7757 7.27883 25.7712 7.28383 25.768 7.29029C25.7648 7.2967 25.7633 7.30428 25.7633 7.31303C25.7633 7.32152 25.7645 7.32896 25.7671 7.33537C25.7696 7.34178 25.7736 7.34678 25.779 7.35037C25.7845 7.35391 25.7916 7.35568 25.8002 7.35568C25.8045 7.35568 25.8082 7.35545 25.8112 7.35498C25.8142 7.35451 25.817 7.35399 25.8196 7.35342V7.32396H25.7954V7.30795ZM25.898 7.28185C25.9057 7.28185 25.9123 7.28344 25.9179 7.28662C25.9234 7.2898 25.9276 7.2943 25.9306 7.30014C25.9336 7.30597 25.935 7.31295 25.935 7.32107V7.33092H25.8773C25.8775 7.3393 25.8798 7.34576 25.884 7.35029C25.8884 7.35482 25.8944 7.35709 25.9022 7.35709C25.9077 7.35709 25.9126 7.35657 25.917 7.35553C25.9214 7.35443 25.926 7.35284 25.9307 7.35076V7.36568C25.9264 7.36771 25.9219 7.3692 25.9175 7.37014C25.913 7.37107 25.9076 7.37154 25.9014 7.37154C25.8929 7.37154 25.8854 7.3699 25.879 7.36662C25.8725 7.36329 25.8675 7.35834 25.8639 7.35178C25.8603 7.34521 25.8585 7.33706 25.8585 7.32732C25.8585 7.31764 25.8601 7.30941 25.8634 7.30264C25.8667 7.29587 25.8713 7.29071 25.8772 7.28717C25.8832 7.28363 25.8901 7.28185 25.898 7.28185ZM25.898 7.29568C25.8922 7.29568 25.8875 7.29756 25.884 7.30131C25.8804 7.30506 25.8783 7.31055 25.8777 7.31779H25.9171C25.917 7.31347 25.9163 7.30964 25.9149 7.30631C25.9135 7.30297 25.9115 7.30037 25.9086 7.2985C25.9059 7.29662 25.9023 7.29568 25.898 7.29568ZM25.9879 7.3567C25.9903 7.3567 25.9927 7.35649 25.995 7.35607C25.9974 7.3556 25.9995 7.35506 26.0015 7.35443V7.36834C25.9994 7.36922 25.9968 7.36998 25.9936 7.3706C25.9903 7.37123 25.987 7.37154 25.9835 7.37154C25.9786 7.37154 25.9742 7.37074 25.9703 7.36912C25.9664 7.36745 25.9633 7.36462 25.961 7.3606C25.9587 7.35659 25.9575 7.35105 25.9575 7.34396V7.29748H25.9458V7.28928L25.9584 7.28279L25.9644 7.26428H25.976V7.2835H26.0008V7.29748H25.976V7.34373C25.976 7.3481 25.9771 7.35136 25.9793 7.3535C25.9815 7.35563 25.9843 7.3567 25.9879 7.3567ZM26.1284 7.33889C26.1284 7.34566 26.1267 7.35149 26.1234 7.35639C26.1201 7.36128 26.1154 7.36503 26.1092 7.36764C26.103 7.37024 26.0957 7.37154 26.0872 7.37154C26.083 7.37154 26.079 7.37131 26.0752 7.37084C26.0714 7.37037 26.0678 7.36969 26.0644 7.36881C26.0611 7.36787 26.058 7.36675 26.0553 7.36545V7.34779C26.0599 7.34982 26.0651 7.35167 26.0708 7.35334C26.0766 7.35495 26.0824 7.35576 26.0883 7.35576C26.0932 7.35576 26.0972 7.35514 26.1004 7.35389C26.1036 7.35258 26.106 7.35076 26.1075 7.34842C26.1091 7.34602 26.1099 7.34324 26.1099 7.34006C26.1099 7.33667 26.109 7.33381 26.1072 7.33146C26.1053 7.32912 26.1026 7.32699 26.0989 7.32506C26.0952 7.32308 26.0906 7.32097 26.0851 7.31873C26.0814 7.31722 26.0778 7.3155 26.0743 7.31357C26.071 7.31165 26.0679 7.30938 26.0653 7.30678C26.0626 7.30417 26.0605 7.3011 26.059 7.29756C26.0574 7.29396 26.0567 7.28975 26.0567 7.2849C26.0567 7.27844 26.0582 7.27292 26.0613 7.26834C26.0644 7.26376 26.0688 7.26024 26.0744 7.25779C26.0801 7.25534 26.0867 7.25412 26.0943 7.25412C26.1003 7.25412 26.1059 7.25475 26.1111 7.256C26.1165 7.25725 26.1217 7.25902 26.1268 7.26131L26.1208 7.27639C26.1161 7.27446 26.1116 7.27292 26.1072 7.27178C26.1028 7.27063 26.0983 7.27006 26.0937 7.27006C26.0898 7.27006 26.0864 7.27066 26.0836 7.27185C26.0809 7.27305 26.0788 7.27475 26.0773 7.27693C26.0759 7.27907 26.0752 7.28162 26.0752 7.28459C26.0752 7.28792 26.076 7.29074 26.0776 7.29303C26.0793 7.29527 26.0818 7.29732 26.0853 7.2992C26.0888 7.30107 26.0933 7.30316 26.0987 7.30545C26.105 7.30805 26.1104 7.31079 26.1147 7.31365C26.1192 7.31652 26.1225 7.31995 26.1249 7.32396C26.1272 7.32792 26.1284 7.3329 26.1284 7.33889ZM26.1808 7.3567C26.1831 7.3567 26.1855 7.35649 26.1879 7.35607C26.1902 7.3556 26.1923 7.35506 26.1943 7.35443V7.36834C26.1922 7.36922 26.1896 7.36998 26.1864 7.3706C26.1831 7.37123 26.1798 7.37154 26.1763 7.37154C26.1714 7.37154 26.167 7.37074 26.1631 7.36912C26.1592 7.36745 26.1561 7.36462 26.1538 7.3606C26.1515 7.35659 26.1504 7.35105 26.1504 7.34396V7.29748H26.1386V7.28928L26.1512 7.28279L26.1572 7.26428H26.1688V7.2835H26.1936V7.29748H26.1688V7.34373C26.1688 7.3481 26.1699 7.35136 26.1721 7.3535C26.1743 7.35563 26.1772 7.3567 26.1808 7.3567ZM26.2458 7.28185C26.2567 7.28185 26.2649 7.28428 26.2705 7.28912C26.2761 7.29396 26.279 7.30152 26.279 7.31178V7.36998H26.2659L26.2624 7.35771H26.2618C26.2593 7.36084 26.2568 7.36342 26.2542 7.36545C26.2516 7.36748 26.2486 7.36899 26.2451 7.36998C26.2417 7.37102 26.2376 7.37154 26.2327 7.37154C26.2275 7.37154 26.2229 7.3706 26.2189 7.36873C26.2148 7.3668 26.2116 7.36389 26.2093 7.35998C26.2069 7.35607 26.2058 7.35113 26.2058 7.34514C26.2058 7.33623 26.2091 7.32954 26.2157 7.32506C26.2223 7.32058 26.2324 7.3181 26.2458 7.31764L26.2608 7.31709V7.31256C26.2608 7.30657 26.2594 7.3023 26.2566 7.29975C26.2539 7.29719 26.2499 7.29592 26.2449 7.29592C26.2406 7.29592 26.2364 7.29654 26.2323 7.29779C26.2283 7.29904 26.2243 7.30058 26.2204 7.3024L26.2145 7.28943C26.2187 7.28719 26.2235 7.28537 26.2289 7.28396C26.2343 7.28256 26.2399 7.28185 26.2458 7.28185ZM26.2608 7.32865L26.2496 7.32904C26.2404 7.32935 26.234 7.33092 26.2303 7.33373C26.2266 7.33654 26.2247 7.3404 26.2247 7.34529C26.2247 7.34956 26.226 7.35269 26.2286 7.35467C26.2311 7.35659 26.2345 7.35756 26.2386 7.35756C26.245 7.35756 26.2503 7.35576 26.2544 7.35217C26.2586 7.34852 26.2608 7.34318 26.2608 7.33615V7.32865ZM26.3485 7.28185C26.3499 7.28185 26.3515 7.28193 26.3533 7.28209C26.355 7.28225 26.3565 7.28245 26.3577 7.28271L26.356 7.2999C26.3549 7.29959 26.3535 7.29935 26.3519 7.2992C26.3504 7.29904 26.349 7.29896 26.3477 7.29896C26.3444 7.29896 26.3413 7.29951 26.3383 7.3006C26.3354 7.30165 26.3327 7.30326 26.3304 7.30545C26.3281 7.30758 26.3264 7.31027 26.325 7.3135C26.3237 7.31672 26.3231 7.32047 26.3231 7.32475V7.36998H26.3047V7.2835H26.319L26.3215 7.29873H26.3224C26.3241 7.29566 26.3262 7.29284 26.3288 7.29029C26.3314 7.28774 26.3343 7.28571 26.3375 7.2842C26.3409 7.28264 26.3445 7.28185 26.3485 7.28185ZM26.4059 7.3567C26.4083 7.3567 26.4107 7.35649 26.413 7.35607C26.4154 7.3556 26.4175 7.35506 26.4194 7.35443V7.36834C26.4174 7.36922 26.4148 7.36998 26.4115 7.3706C26.4083 7.37123 26.4049 7.37154 26.4015 7.37154C26.3966 7.37154 26.3922 7.37074 26.3883 7.36912C26.3843 7.36745 26.3812 7.36462 26.379 7.3606C26.3767 7.35659 26.3755 7.35105 26.3755 7.34396V7.29748H26.3637V7.28928L26.3764 7.28279L26.3824 7.26428H26.394V7.2835H26.4187V7.29748H26.394V7.34373C26.394 7.3481 26.395 7.35136 26.3972 7.3535C26.3994 7.35563 26.4023 7.3567 26.4059 7.3567ZM26.4715 7.28185C26.4792 7.28185 26.4858 7.28344 26.4913 7.28662C26.4968 7.2898 26.5011 7.2943 26.504 7.30014C26.507 7.30597 26.5085 7.31295 26.5085 7.32107V7.33092H26.4508C26.451 7.3393 26.4532 7.34576 26.4575 7.35029C26.4618 7.35482 26.4678 7.35709 26.4756 7.35709C26.4811 7.35709 26.4861 7.35657 26.4904 7.35553C26.4949 7.35443 26.4994 7.35284 26.5041 7.35076V7.36568C26.4998 7.36771 26.4954 7.3692 26.4909 7.37014C26.4864 7.37107 26.4811 7.37154 26.4748 7.37154C26.4663 7.37154 26.4589 7.3699 26.4524 7.36662C26.446 7.36329 26.441 7.35834 26.4373 7.35178C26.4337 7.34521 26.4319 7.33706 26.4319 7.32732C26.4319 7.31764 26.4336 7.30941 26.4368 7.30264C26.4401 7.29587 26.4447 7.29071 26.4507 7.28717C26.4566 7.28363 26.4635 7.28185 26.4715 7.28185ZM26.4715 7.29568C26.4657 7.29568 26.461 7.29756 26.4574 7.30131C26.4539 7.30506 26.4518 7.31055 26.4511 7.31779H26.4905C26.4905 7.31347 26.4897 7.30964 26.4883 7.30631C26.487 7.30297 26.4849 7.30037 26.4821 7.2985C26.4793 7.29662 26.4758 7.29568 26.4715 7.29568ZM26.5583 7.37154C26.5479 7.37154 26.5397 7.36779 26.5334 7.36029C26.5272 7.35274 26.5241 7.34162 26.5241 7.32693C26.5241 7.31209 26.5273 7.30087 26.5336 7.29326C26.5399 7.28566 26.5483 7.28185 26.5586 7.28185C26.563 7.28185 26.5668 7.28245 26.5701 7.28365C26.5734 7.2848 26.5762 7.28636 26.5786 7.28834C26.581 7.29032 26.583 7.29253 26.5847 7.29498H26.5855C26.5853 7.29337 26.5849 7.29105 26.5846 7.28803C26.5843 7.28495 26.5841 7.28212 26.5841 7.27951V7.24842H26.6025V7.36998H26.5882L26.5849 7.35818H26.5841C26.5825 7.36068 26.5806 7.36295 26.5782 7.36498C26.5758 7.36696 26.573 7.36855 26.5697 7.36975C26.5665 7.37094 26.5627 7.37154 26.5583 7.37154ZM26.5634 7.35662C26.5713 7.35662 26.5768 7.35435 26.58 7.34982C26.5833 7.34529 26.5849 7.3385 26.585 7.32943V7.32701C26.585 7.31732 26.5835 7.3099 26.5804 7.30475C26.5772 7.29954 26.5715 7.29693 26.5633 7.29693C26.5566 7.29693 26.5516 7.29962 26.5481 7.30498C26.5447 7.31029 26.5429 7.31771 26.5429 7.32725C26.5429 7.33678 26.5447 7.34407 26.5481 7.34912C26.5516 7.35412 26.5567 7.35662 26.5634 7.35662Z" fill="white"/>
</g>
<path d="M5.33337 6.66666H26.6667" stroke="#093C6E" stroke-width="3" stroke-linecap="round" stroke-linejoin="round"/>
<path d="M5.33337 14.6667H26.6667" stroke="#093C6E" stroke-width="3" stroke-linecap="round" stroke-linejoin="round"/>
<path d="M5.33337 22.6667H26.6667" stroke="#093C6E" stroke-width="3" stroke-linecap="round" stroke-linejoin="round"/>
<defs>
<filter id="filter0_d_51_2611" x="24.96" y="6" width="2.42998" height="1.81" filterUnits="userSpaceOnUse" color-interpolation-filters="sRGB">
<feFlood flood-opacity="0" result="BackgroundImageFix"/>
<feColorMatrix in="SourceAlpha" type="matrix" values="0 0 0 0 0 0 0 0 0 0 0 0 0 0 0 0 0 0 127 0" result="hardAlpha"/>
<feOffset dy="0.04"/>
<feGaussianBlur stdDeviation="0.02"/>
<feComposite in2="hardAlpha" operator="out"/>
<feColorMatrix type="matrix" values="0 0 0 0 0 0 0 0 0 0 0 0 0 0 0 0 0 0 0.25 0"/>
<feBlend mode="normal" in2="BackgroundImageFix" result="effect1_dropShadow_51_2611"/>
<feBlend mode="normal" in="SourceGraphic" in2="effect1_dropShadow_51_2611" result="shape"/>
</filter>
</defs>
</svg>
