<svg width="24" height="26" viewBox="0 0 24 26" fill="none" xmlns="http://www.w3.org/2000/svg">
<path d="M16.927 0.77417C15.0704 0.77417 13.3142 1.49485 12.0003 2.77282C10.6836 1.49485 8.92658 0.77417 7.07017 0.77417C3.17001 0.77417 0 3.94474 0 7.84462C0 16.2651 11.1123 24.5718 11.5852 24.9225L12.0003 25.2257L12.412 24.9225C12.8852 24.5718 24 16.2651 24 7.84462C24 3.94474 20.8269 0.77417 16.927 0.77417ZM3.50433 14.2823L2.66923 12.7608C2.64669 12.7079 2.62191 12.6575 2.59964 12.6102C2.47967 12.3597 2.36832 12.1092 2.26533 11.8586C2.25726 11.8339 2.24584 11.8141 2.24027 11.7974C2.2322 11.7832 2.22691 11.7665 2.22385 11.7529H2.22107L2.21801 11.7445C1.70053 10.4585 1.39182 9.1443 1.39182 7.84462C1.39182 4.71302 3.93857 2.16599 7.07017 2.16599C8.77627 2.16599 10.3771 2.92286 11.4628 4.24259L12.0003 4.89702L12.5375 4.24259C13.6201 2.92286 15.2207 2.16599 16.927 2.16599C20.0614 2.16599 22.6082 4.71302 22.6082 7.84462C22.6082 8.70755 22.4718 9.57604 22.2296 10.4362L22.2271 10.4387V10.4476C22.2246 10.4532 22.2218 10.464 22.216 10.4777C22.0517 11.0625 21.8346 11.6443 21.5816 12.2208L20.8857 13.6126C20.7854 13.7905 20.6822 13.9686 20.5767 14.1468C20.0868 14.9707 19.5325 15.7699 18.9449 16.5326C18.9449 16.5354 18.9424 16.5379 18.9399 16.5404C16.3428 19.9228 13.1277 22.5926 12.0003 23.4834C10.7115 22.4646 6.70802 19.1353 4.0051 15.0682C3.80496 14.7675 3.61011 14.4613 3.42638 14.1521" fill="#093C6E"/>
<path fill-rule="evenodd" clip-rule="evenodd" d="M17.5156 7.11867C17.6981 7.11682 17.8584 7.24002 17.9041 7.41725L19.041 11.8337L19.4542 8.70985C19.4778 8.53091 19.6186 8.39033 19.7972 8.36736C19.9758 8.34438 20.1475 8.44476 20.2155 8.61191L20.9665 10.4588H22.8574C23.0767 10.4588 23.2545 10.637 23.2545 10.8568C23.2545 11.0767 23.0767 11.2549 22.8574 11.2549H20.6996C20.5381 11.2549 20.3928 11.1569 20.3319 11.0071L20.0448 10.3011L19.56 13.9662C19.535 14.1551 19.38 14.2997 19.1903 14.3112C19.0006 14.3227 18.8294 14.1978 18.7819 14.0133L17.5363 9.17473L16.9974 11.458C16.955 11.6376 16.7951 11.7644 16.611 11.7644H14.7755L14.0468 15.2412C14.009 15.4215 13.8526 15.5523 13.6689 15.5573C13.4851 15.5622 13.322 15.4401 13.2745 15.262L12.1338 10.9784L11.8387 13.9533C11.8214 14.1276 11.6925 14.2701 11.5211 14.3043C11.3497 14.3385 11.1762 14.2564 11.0936 14.102L9.84307 11.7644H6.84393C6.70006 11.7644 6.56744 11.6864 6.49728 11.5605L6.21979 11.0625L5.70387 14.7058C5.67739 14.8927 5.52355 15.0353 5.33557 15.0471C5.14759 15.0589 4.97719 14.9367 4.92764 14.7546L3.53607 9.63881L3.02974 11.9608C2.98988 12.1436 2.82844 12.2739 2.64182 12.2739H0.938675V11.4778H2.32216L3.10568 7.8846C3.14472 7.70554 3.30069 7.57635 3.48347 7.57168C3.66625 7.56701 3.82859 7.68805 3.87669 7.86488L5.18788 12.6852L5.59902 9.78186C5.62297 9.61273 5.7519 9.47778 5.91942 9.44649C6.08694 9.4152 6.25571 9.49455 6.33881 9.64368L7.07695 10.9683H10.0807C10.227 10.9683 10.3615 11.0489 10.4306 11.1782L11.1774 12.5742L11.5595 8.72278C11.5785 8.53137 11.7313 8.38096 11.9225 8.36542C12.1138 8.34988 12.2888 8.47366 12.3383 8.65951L13.6121 13.4431L14.0646 11.2845C14.1032 11.1002 14.2653 10.9683 14.4532 10.9683H16.2969L17.1332 7.42506C17.1752 7.24695 17.333 7.12052 17.5156 7.11867Z" fill="#093C6E"/>
</svg>
