<svg width="25" height="24" viewBox="0 0 25 24" fill="none" xmlns="http://www.w3.org/2000/svg">
<path d="M12.6667 22C18.1895 22 22.6667 17.5228 22.6667 12C22.6667 6.47715 18.1895 2 12.6667 2C7.14381 2 2.66666 6.47715 2.66666 12C2.66666 17.5228 7.14381 22 12.6667 22Z" stroke="#093C6E" stroke-width="1.5" stroke-linecap="round" stroke-linejoin="round"/>
<path d="M14.6666 5.73791C14.6666 5.73791 13.5515 6.23808 12.7683 5.85651C11.813 5.39118 10.8657 3.44619 12.758 2" stroke="#093C6E" stroke-width="1.5" stroke-linecap="round" stroke-linejoin="round"/>
<path d="M8.67563 9H8.66666M16.6667 9H16.6577" stroke="#093C6E" stroke-width="2" stroke-linecap="round" stroke-linejoin="round"/>
<path d="M8.66666 15C9.57878 16.2144 11.031 17 12.6667 17C14.3024 17 15.7546 16.2144 16.6667 15" stroke="#093C6E" stroke-width="1.5" stroke-linecap="round" stroke-linejoin="round"/>
</svg>
