<svg width="24" height="25" viewBox="0 0 24 25" fill="none" xmlns="http://www.w3.org/2000/svg">
<path d="M7 18.6328C5.17107 19.0445 4 19.6771 4 20.3865C4 21.6271 7.58172 22.6328 12 22.6328C16.4183 22.6328 20 21.6271 20 20.3865C20 19.6771 18.8289 19.0445 17 18.6328" stroke="black" stroke-width="1.5" stroke-linecap="round"/>
<path d="M14.5 9.63281C14.5 11.0135 13.3807 12.1328 12 12.1328C10.6193 12.1328 9.5 11.0135 9.5 9.63281C9.5 8.2521 10.6193 7.13281 12 7.13281C13.3807 7.13281 14.5 8.2521 14.5 9.63281Z" stroke="black" stroke-width="1.5"/>
<path d="M13.2574 18.1264C12.9201 18.4512 12.4693 18.6328 12.0002 18.6328C11.531 18.6328 11.0802 18.4512 10.7429 18.1264C7.6543 15.1336 3.51519 11.7903 5.53371 6.93654C6.6251 4.31213 9.24494 2.63281 12.0002 2.63281C14.7554 2.63281 17.3752 4.31214 18.4666 6.93654C20.4826 11.7842 16.3536 15.1439 13.2574 18.1264Z" stroke="black" stroke-width="1.5"/>
</svg>
