<svg width="24" height="25" viewBox="0 0 24 25" fill="none" xmlns="http://www.w3.org/2000/svg">
<path d="M4.9984 7.63281L3.77959 8.44534C2.90588 9.02782 2.46902 9.31906 2.23227 9.76322C1.99552 10.2074 1.99728 10.7294 2.00078 11.7734C2.00501 13.0303 2.01669 14.311 2.04904 15.6069C2.12578 18.6815 2.16416 20.2188 3.29456 21.3492C4.42496 22.4797 5.98302 22.5186 9.09913 22.5965C11.0377 22.6449 12.9591 22.6449 14.8976 22.5965C18.0138 22.5186 19.5718 22.4797 20.7022 21.3492C21.8326 20.2188 21.871 18.6815 21.9477 15.6069C21.9801 14.311 21.9917 13.0303 21.996 11.7734C21.9995 10.7294 22.0012 10.2074 21.7645 9.76322C21.5277 9.31906 21.0909 9.02782 20.2171 8.44534L18.9983 7.63281" stroke="#141B34" stroke-width="1.5" stroke-linejoin="round"/>
<path d="M2 10.6328L8.91302 14.7806C10.417 15.683 11.169 16.1342 12 16.1342C12.831 16.1342 13.583 15.683 15.087 14.7806L22 10.6328" stroke="#141B34" stroke-width="1.5" stroke-linejoin="round"/>
<path d="M4.99998 12.6328V6.63281C4.99998 4.74719 4.99998 3.80438 5.58577 3.2186C6.17156 2.63281 7.11437 2.63281 8.99998 2.63281H15C16.8856 2.63281 17.8284 2.63281 18.4142 3.2186C19 3.80438 19 4.74719 19 6.63281V12.6328" stroke="#141B34" stroke-width="1.5"/>
<path d="M10 10.6328H14M10 6.63281H14" stroke="#141B34" stroke-width="1.5" stroke-linecap="round" stroke-linejoin="round"/>
</svg>
