<svg width="98" height="98" viewBox="0 0 98 98" fill="none" xmlns="http://www.w3.org/2000/svg">
<path opacity="0.4" d="M48.8775 89.8334C71.4291 89.8334 89.7108 71.5517 89.7108 49C89.7108 26.4484 71.4291 8.16669 48.8775 8.16669C26.3259 8.16669 8.04416 26.4484 8.04416 49C8.04416 71.5517 26.3259 89.8334 48.8775 89.8334Z" fill="white"/>
<path d="M61.1275 41.7725L49.2858 34.9534C46.3458 33.2384 42.7933 33.2384 39.8533 34.9534C36.9133 36.6684 35.1575 39.69 35.1575 43.12V56.7992C35.1575 60.1884 36.9133 63.2509 39.8533 64.9659C41.3233 65.8234 42.9566 66.2317 44.5491 66.2317C46.1825 66.2317 47.775 65.8234 49.245 64.9659L61.0866 58.1467C64.0266 56.4317 65.7825 53.41 65.7825 49.98C65.8641 46.55 64.1083 43.4875 61.1275 41.7725Z" fill="white"/>
</svg>
