<svg width="20" height="23" viewBox="0 0 20 23" fill="none" xmlns="http://www.w3.org/2000/svg">
<path d="M15.25 18.98L13.99 18.63L14.34 19.89C13.08 21.01 11.61 21.71 10 21.71C8.46 21.71 6.98999 21.01 5.65999 19.89L6.00999 18.63L4.75 18.98C2.44 16.46 0.900002 12.54 0.900002 9.53C0.900002 7.71 1.46001 5.96 2.44001 4.49L4.68 5.11999L4.05 2.74C5.66 1.34 7.76001 0.5 10.07 0.5C12.38 0.5 14.48 1.34 16.09 2.74L15.46 5.11999L17.7 4.49C18.68 5.96 19.24 7.64 19.24 9.53C19.1 12.54 17.63 16.39 15.25 18.98Z" stroke="#093C6E" stroke-miterlimit="10" stroke-linecap="round" stroke-linejoin="round"/>
<path d="M6.22001 12.1899C7.49578 12.1899 8.53 11.5631 8.53 10.7899C8.53 10.0167 7.49578 9.38989 6.22001 9.38989C4.94423 9.38989 3.90999 10.0167 3.90999 10.7899C3.90999 11.5631 4.94423 12.1899 6.22001 12.1899Z" stroke="#093C6E" stroke-miterlimit="10" stroke-linecap="round" stroke-linejoin="round"/>
<path d="M13.85 12.1899C15.1258 12.1899 16.16 11.5631 16.16 10.7899C16.16 10.0167 15.1258 9.38989 13.85 9.38989C12.5742 9.38989 11.54 10.0167 11.54 10.7899C11.54 11.5631 12.5742 12.1899 13.85 12.1899Z" stroke="#093C6E" stroke-miterlimit="10" stroke-linecap="round" stroke-linejoin="round"/>
<path d="M10 17.7199C11.1598 17.7199 12.1 17.3125 12.1 16.8099C12.1 16.3073 11.1598 15.8999 10 15.8999C8.8402 15.8999 7.9 16.3073 7.9 16.8099C7.9 17.3125 8.8402 17.7199 10 17.7199Z" stroke="#093C6E" stroke-miterlimit="10" stroke-linecap="round" stroke-linejoin="round"/>
</svg>
