<svg width="64" height="65" viewBox="0 0 64 65" fill="none" xmlns="http://www.w3.org/2000/svg">
<path d="M40 5.96582L41.4365 12.3433C42.6552 17.7529 46.8794 21.9773 52.289 23.1959L58.6666 24.6325L52.289 26.0691C46.8794 27.2877 42.6552 31.512 41.4365 36.9216L40 43.2992L38.5634 36.9216C37.3448 31.512 33.1205 27.2877 27.7109 26.0691L21.3333 24.6325L27.7109 23.1959C33.1202 21.9773 37.3448 17.7529 38.5634 12.3434L40 5.96582Z" stroke="white" stroke-opacity="0.05" stroke-width="4" stroke-linejoin="round"/>
<path d="M18.6666 32.6323L19.6928 37.1878C20.5632 41.0515 23.5806 44.0691 27.4445 44.9395L32 45.9657L27.4445 46.9918C23.5806 47.8622 20.5632 50.8795 19.6928 54.7435L18.6666 59.299L17.6405 54.7435C16.7701 50.8795 13.7526 47.8622 9.8887 46.9918L5.33331 45.9657L9.8887 44.9395C13.7526 44.0691 16.7701 41.0518 17.6405 37.1878L18.6666 32.6323Z" stroke="white" stroke-opacity="0.05" stroke-width="4" stroke-linejoin="round"/>
</svg>
