<svg width="64" height="65" viewBox="0 0 64 65" fill="none" xmlns="http://www.w3.org/2000/svg">
<path d="M8 32.6323C20 32.6323 32 20.6323 32 8.63232C32 20.6323 44 32.6323 56 32.6323C44 32.6323 32 44.6323 32 56.6323C32 44.6323 20 32.6323 8 32.6323Z" stroke="white" stroke-width="3.5" stroke-linejoin="round"/>
<path d="M5.33333 52.6325C7.55554 52.6325 12 48.188 12 45.9658C12 48.188 16.4444 52.6325 18.6667 52.6325C16.4444 52.6325 12 57.077 12 59.2992C12 57.077 7.55554 52.6325 5.33333 52.6325Z" stroke="white" stroke-width="3.5" stroke-linejoin="round"/>
<path d="M42.6667 13.9658C45.3333 13.9658 50.6667 8.63249 50.6667 5.96582C50.6667 8.63249 56 13.9658 58.6667 13.9658C56 13.9658 50.6667 19.2992 50.6667 21.9658C50.6667 19.2992 45.3333 13.9658 42.6667 13.9658Z" stroke="white" stroke-width="3.5" stroke-linejoin="round"/>
</svg>
